<svg xmlns="http://www.w3.org/2000/svg" viewBox="0 0 210.5 143"><defs><style>.cls-1{fill:#730158;}.cls-2{fill:#cd432a;}.cls-3{fill:#4291b6;}.cls-4{fill:#0b726f;}.cls-5{fill:none;stroke:#0b726f;stroke-miterlimit:10;stroke-width:5px;}</style></defs><g id="Layer_2" data-name="Layer 2"><g id="Layer_5" data-name="Layer 5"><path class="cls-1" d="M23.44,99.43c6.43,0,6.44-10,0-10s-6.45,10,0,10Z"/><circle class="cls-2" cx="21.5" cy="44" r="21.5"/><circle class="cls-3" cx="102.5" cy="111" r="17"/><circle class="cls-3" cx="158" cy="55.5" r="15.5"/><circle class="cls-4" cx="97" cy="27.5" r="16.5"/><circle class="cls-5" cx="97" cy="27.5" r="16.5"/><path class="cls-4" d="M71.5,74a4,4,0,1,0,4,4,4,4,0,0,0-4-4Z"/><path class="cls-4" d="M123,67a3.5,3.5,0,1,0,3.5,3.5A3.5,3.5,0,0,0,123,67Z"/><circle class="cls-1" cx="144" cy="9.5" r="9.5"/><circle class="cls-4" cx="58" cy="118.5" r="24.5"/><circle class="cls-1" cx="74" cy="12.5" r="12.5"/><circle class="cls-3" cx="190" cy="37.5" r="12.5"/><circle class="cls-2" cx="101.5" cy="69" r="15"/><circle class="cls-2" cx="165" cy="97.5" r="19.5"/><circle class="cls-1" cx="192" cy="73.5" r="18.5"/><circle class="cls-1" cx="50.5" cy="75" r="14"/></g></g></svg>