<svg xmlns="http://www.w3.org/2000/svg" viewBox="0 0 599.75 212.93"><defs><style>.cls-1{fill:#c4bb00;}.cls-2{fill:#0b726f;}.cls-3{fill:#cd432a;}.cls-4{fill:#4291b6;}.cls-5{fill:#730158;}</style></defs><g id="Layer_2" data-name="Layer 2"><g id="Layer_2_copy" data-name="Layer 2 copy"><path class="cls-1" d="M552.65,2c1-2.55,3-2.69,4.38-.31L567.9,20.46A10.3,10.3,0,0,0,575.4,25l21.65,1.08c2.75.14,3.53,2,1.73,4l-14.7,17A11,11,0,0,0,582,55.83l5.08,21.38c.64,2.67-.91,4-3.45,2.92l-19.79-8.34a10.58,10.58,0,0,0-8.79.79l-18.7,12.18c-2.3,1.5-4,.49-3.67-2.24l2.28-22.2a10.53,10.53,0,0,0-3.32-8.18L515.15,38.35c-2.11-1.76-1.65-3.74,1-4.4l21.34-5.25a11,11,0,0,0,6.73-5.84Z"/><path class="cls-2" d="M438.56,159.17q43-33.7,83.36-70.5c3.81-3.48-1.86-9.12-5.66-5.66q-40.36,36.78-83.36,70.5c-4,3.17,1.65,8.8,5.66,5.66Z"/><path class="cls-3" d="M401.73,57.94,502,59.32c5.15.07,5.15-7.93,0-8L401.73,49.94c-5.15-.07-5.15,7.93,0,8Z"/><path class="cls-4" d="M421,111.21l77.8-34.28L521,67.16c1.92-.85,2.51-3.8,1.43-5.48A4.11,4.11,0,0,0,517,60.25L439.24,94.5,417,104.3c-1.92.85-2.52,3.8-1.44,5.47a4.13,4.13,0,0,0,5.47,1.44Z"/></g><g id="Layer_5" data-name="Layer 5"><path class="cls-5" d="M58.76,93.78c-12.66-3.77-26.43-7-39-1.13C8.58,97.82,1.66,109.54.26,121.5s3.43,24.55,14.62,30.23c12.37,6.29,28.19,5.24,41.48,3.4,8.55-1.19,6.21-14.66-2-14.73-15.56-.15-31.88,3.67-43.08,15.16C1.67,165.45-3,180,2,193.2,7.63,208,21.57,214.7,36.86,212.52c13-1.85,30.44-6.26,35.08-20.23,3.06-9.18-11.42-13.12-14.46-4-1,3.06-4.94,4.49-7.72,5.47a76.75,76.75,0,0,1-15.16,4c-9.41,1.26-17.35-2.94-19.34-12.62-1.7-8.29,3.06-16.44,9.35-21.52,8.31-6.74,19.39-8.37,29.76-8.27l-2-14.74c-8.95,1.25-19.59,1.76-28.25-1.26C16.61,136.79,14,129.54,15.23,122c1.18-7.09,5.6-14.1,12.6-16.57,8.67-3,18.56.28,26.94,2.78C64,111,68,96.53,58.76,93.78Z"/><path class="cls-5" d="M124.36,157.5c-4.71-15.68-26.84-9.69-36.58-2.89-12.33,8.61-16.8,27.47-9,40.65,8.18,13.75,31,11.3,41.19,1.26,5.78-5.68,7.7-13.62,8.5-21.41a181.19,181.19,0,0,0,.21-28.15c-1.14-21.24-4.27-42.33-4.26-63.63,0-9.65-15-9.66-15,0,0,16.78,1.9,33.44,3.31,50.14.7,8.33,1.26,16.68,1.33,25.05.07,7.22.49,15.27-1.75,22.24-2,6.22-7.37,8.62-13.6,8.83-2.17.07-5,.26-6.64-1.35s-2-5.54-2-7.8c0-6.32,2-11.23,7.62-14.41a30,30,0,0,1,7.78-2.87,17.4,17.4,0,0,1,3.27-.59c2.49-.09,1.61.73,1.06-1.08,2.77,9.22,17.26,5.29,14.47-4Z"/><path class="cls-5" d="M115.81,164c.18,12.59,2.68,47.66,23.78,40.55,9.1-3.07,5.2-17.56-4-14.47-2.34.79-4.76-23-4.8-26.08-.14-9.65-15.14-9.68-15,0Z"/><path class="cls-5" d="M150.43,159.84c-2.33,9.59,1.6,19.45,5.21,28.26,3.46,8.44,8,18,18.71,17.57,9.79-.43,15.43-9,18-17.46,3.12-10.18,4.55-21,2.05-31.4-1.91-8-15.66-6.55-14.73,2,1.07,9.72,1.56,19.73,3.44,29.33,1.68,8.58,6.89,16.1,15.58,18.51,9.32,2.57,13.3-11.9,4-14.47-5.07-1.4-5.29-8.65-5.77-12.94q-1.12-10.22-2.24-20.43l-14.73,2c1.45,6.11.77,12.21-.67,18.26-.53,2.21-1.94,11.44-5.29,11.58-2.25.1-4.86-8.82-5.53-10.63-1.75-4.7-4.83-11.1-3.6-16.17,2.28-9.38-12.18-13.38-14.46-4Z"/><path class="cls-4" d="M253.59,150.91c-7.85-5.8-21.73-6-30.37-1.88-9.48,4.55-15,18.24-9.45,27.75,6.37,11,18.66,3.78,27.67,8.71,3.36,1.84,4.52,5.25.82,7.28-4.44,2.42-10.44.39-15-.75-9.36-2.38-13.35,12.08-4,14.46,10.25,2.61,21.63,4.16,30.23-3.44,8.27-7.31,7.81-19.61,0-27.1a25.77,25.77,0,0,0-14.18-6.54,51.27,51.27,0,0,0-7.83-.54c-1.2,0-2.43.14-3.63,0-.94-.08-2.22-1-1.63.09.7,1.31.57-2.11.63-2.4a6.71,6.71,0,0,1,1.1-2.76c1.16-1.48,3.29-2,5.06-2.26,4.23-.59,9.46-.27,13,2.3,3.28,2.43,8.34.52,10.26-2.69,2.27-3.79.55-7.86-2.69-10.26Z"/><path class="cls-4" d="M296.9,155.73c-11.63-9.2-24.18.67-29.62,11.89s-4.44,25.17,5.14,33.81c8.55,7.71,22.42,7.87,30.64-.5,10.27-10.46,4.12-24.61.4-36.32-2.9-9.17-16.87-5.42-14.46,4,3.09,12.06,14.21,44.79,32,35.08,8.48-4.62.92-17.58-7.57-12.95,1.47-.8,1.75.46,1.7-.85,0-.69-2-2.91-2.46-3.65a77.86,77.86,0,0,1-3.9-6.9,73.22,73.22,0,0,1-5.31-14.71l-14.46,4c1.79,5.65,5.88,12.63,4.73,18.74-.8,4.25-5.34,6.11-9.23,4.4-4.55-2-6.21-7.92-5.5-12.43a19,19,0,0,1,3.17-7.52,18.12,18.12,0,0,1,2.75-3.3c.84-.79,2.47-1.28,1.37-2.15,3.2,2.54,7.47,3.07,10.61,0,2.63-2.58,3.17-8.09,0-10.6Z"/><path class="cls-4" d="M320.07,154.79c1.26,10.23,1.42,21.51,4.28,31.44,2.79,9.68,11.69,17.47,22.22,15.78,10.06-1.6,14.76-10.5,16.4-19.66,1.84-10.27,5-22.94.95-33-3.1-7.69-14.18-6.86-14.73,2-.78,12.56-1.29,26.22,1.3,38.62,2.23,10.69,13.6,17.7,23.7,12.08,8.43-4.69.88-17.65-7.57-12.95.6-.34-.12.18-.61-.26a4.35,4.35,0,0,1-.92-2.15c-.95-3.47-.85-7.44-1-11a206.05,206.05,0,0,1,.14-24.35l-14.73,2c2.41,6,1,13.16,0,19.39-.52,3.26-.67,13.38-5,14.46-5.38,1.35-6.34-7.43-6.76-10.75-.92-7.21-1.78-14.43-2.67-21.64-.5-4-3.09-7.5-7.5-7.5-3.67,0-8,3.45-7.5,7.5Z"/><path class="cls-4" d="M382,159.33c2.06,13.6,3.46,27.28,4.32,41,.59,9.59,15.6,9.65,15,0-.94-15.07-2.59-30.07-4.86-45-.61-4-5.66-6.24-9.23-5.24-4.28,1.2-5.85,5.19-5.23,9.23Z"/><path class="cls-4" d="M395,159.21c.87-3.53,3.1-7.25,7.18-7.38,3-.09,7.59,2.63,6.92,6.16-1.77,9.44,12.68,13.48,14.47,4a21.2,21.2,0,0,0-18.47-24.9c-11.77-1.51-21.82,7-24.56,18.14-2.31,9.37,12.15,13.37,14.46,4Z"/></g></g></svg>