<svg id="Layer_1" data-name="Layer 1" xmlns="http://www.w3.org/2000/svg" xmlns:xlink="http://www.w3.org/1999/xlink" viewBox="0 0 1920 1083"><defs><style>.cls-1{fill:#c4bb00;}.cls-2{fill:#cd432a;}.cls-3{fill:#0b726f;}.cls-4{fill:#4995b9;}.cls-5{fill:#730158;}</style><image id="image" width="200" height="200" xlink:href="../../../../xampp/htdocs/moodle/Edusaur2/Assets/PNG%20Assets/triangle%20corner.png"/></defs><image width="613" height="226" transform="translate(1383 35) scale(0.75 0.71)" xlink:href="../../../../xampp/htdocs/moodle/Edusaur2/Assets/PNG%20Assets/1x/edu-ol.png"/><use transform="translate(1920 1083) rotate(180)" xlink:href="#image"/><use xlink:href="#image"/><ellipse class="cls-1" cx="308.31" cy="550.43" rx="36.88" ry="37.05" transform="translate(-268.74 298.41) rotate(-36.9)"/><circle class="cls-2" cx="271.5" cy="76.5" r="31.5"/><circle class="cls-2" cx="161" cy="760" r="47"/><ellipse class="cls-2" cx="526.93" cy="648.52" rx="27.06" ry="27.34" transform="translate(-307.78 690.05) rotate(-53.55)"/><ellipse class="cls-2" cx="1333.94" cy="286.42" rx="37.03" ry="37.15" transform="translate(288.95 1166.6) rotate(-52.13)"/><ellipse class="cls-2" cx="1735.23" cy="364.48" rx="32.25" ry="32.48" transform="translate(83.59 1012.41) rotate(-33.19)"/><ellipse class="cls-2" cx="1444.97" cy="659.86" rx="31.07" ry="30.87" transform="translate(240.84 1698.93) rotate(-65.25)"/><circle class="cls-2" cx="1333.5" cy="954.5" r="28.5"/><ellipse class="cls-1" cx="527.82" cy="116.93" rx="36.88" ry="37.03" transform="translate(89.53 436.42) rotate(-48.32)"/><circle class="cls-1" cx="68" cy="297" r="32"/><ellipse class="cls-1" cx="386" cy="965.78" rx="38.97" ry="39.02" transform="translate(-620.17 705.45) rotate(-53.55)"/><use transform="translate(0 1083) rotate(-90)" xlink:href="#image"/><circle class="cls-1" cx="1824.5" cy="236.5" r="21.5"/><circle class="cls-1" cx="1344" cy="491" r="25"/><circle class="cls-1" cx="1678" cy="872" r="42"/><ellipse class="cls-3" cx="1552.63" cy="316.99" rx="33.8" ry="33.74" transform="translate(-14.05 558.03) rotate(-20.18)"/><ellipse class="cls-3" cx="1635.82" cy="648.34" rx="42.7" ry="42.87" transform="translate(-123.24 607.07) rotate(-20.18)"/><ellipse class="cls-3" cx="1250.31" cy="125.42" rx="29.35" ry="29.46" transform="translate(135.34 707.94) rotate(-33.19)"/><ellipse class="cls-3" cx="151.62" cy="930.34" rx="42.7" ry="42.87" transform="translate(-484.57 237.8) rotate(-33.19)"/><ellipse class="cls-3" cx="560.35" cy="880.47" rx="32.58" ry="32.63" transform="matrix(0.8, -0.6, 0.6, 0.8, -416.43, 515.87)"/><circle class="cls-3" cx="288.54" cy="235.22" r="37.74" transform="translate(-73.17 150.2) rotate(-25.51)"/><circle class="cls-4" cx="450" cy="296" r="31"/><ellipse class="cls-4" cx="194.37" cy="405.45" rx="17.99" ry="18.11" transform="translate(-252.08 461.76) rotate(-71.2)"/><circle class="cls-4" cx="382" cy="760" r="31"/><circle class="cls-4" cx="1382" cy="816" r="48"/><circle class="cls-4" cx="1788.56" cy="542" r="36.37"/><ellipse class="cls-5" cx="481.02" cy="465.88" rx="40.98" ry="41.12"/><circle class="cls-5" cx="87" cy="572" r="46"/><ellipse class="cls-5" cx="1501.19" cy="468.56" rx="41.48" ry="41.5" transform="translate(-69.54 394.64) rotate(-14.53)"/><circle class="cls-5" cx="1825" cy="768" r="45"/><circle class="cls-5" cx="1537.5" cy="968.5" r="35.5"/></svg>