<svg xmlns="http://www.w3.org/2000/svg" viewBox="0 0 201.88 160.09"><defs><style>.cls-1{fill:#c4bb00;}.cls-2{fill:#0b726f;}.cls-3{fill:#cd432a;}.cls-4{fill:#4291b6;}</style></defs><g id="Layer_2" data-name="Layer 2"><g id="Layer_2_copy" data-name="Layer 2 copy"><path class="cls-1" d="M154.78,2c1-2.55,3-2.69,4.38-.31L170,20.46a10.3,10.3,0,0,0,7.5,4.58l21.65,1.08c2.75.14,3.53,2,1.73,4l-14.7,17a11,11,0,0,0-2.11,8.65l5.08,21.38c.64,2.67-.91,4-3.45,2.92L166,71.79a10.6,10.6,0,0,0-8.8.79l-18.7,12.18c-2.3,1.5-3.95.49-3.67-2.24l2.28-22.2a10.53,10.53,0,0,0-3.32-8.18L117.28,38.35c-2.11-1.76-1.65-3.74,1-4.4l21.34-5.25a11,11,0,0,0,6.73-5.84Z"/><path class="cls-2" d="M40.69,159.17q43-33.7,83.36-70.5c3.81-3.48-1.86-9.12-5.66-5.66Q78,119.79,35,153.51c-4,3.17,1.65,8.8,5.66,5.66Z"/><path class="cls-3" d="M3.86,57.94l100.23,1.38c5.15.07,5.15-7.93,0-8L3.86,49.94c-5.15-.07-5.15,7.93,0,8Z"/><path class="cls-4" d="M23.18,111.21,101,76.93l22.19-9.77c1.92-.85,2.51-3.8,1.43-5.48a4.11,4.11,0,0,0-5.47-1.43L41.37,94.5l-22.23,9.8c-1.92.85-2.52,3.8-1.44,5.47a4.14,4.14,0,0,0,5.48,1.44Z"/></g><g id="Layer_5" data-name="Layer 5"><path class="cls-1" d="M137.62,41.91c6.43,0,6.44-10,0-10s-6.45,10,0,10Z"/></g></g></svg>