<svg xmlns="http://www.w3.org/2000/svg" viewBox="0 0 221.84 105.68"><defs><style>.cls-1{fill:#cd432a;}.cls-2{fill:#4291b6;}.cls-3{fill:#730158;}.cls-4{fill:#0b726f;}</style></defs><g id="Layer_2" data-name="Layer 2"><g id="Layer_5" data-name="Layer 5"><polygon class="cls-1" points="39.92 29.18 2.46 8.08 6.38 1.11 39.92 20 75.41 0 110.91 20 146.41 0 181.91 20 215.46 1.11 219.38 8.08 181.91 29.18 146.41 9.18 110.91 29.18 75.41 9.18 39.92 29.18"/><polygon class="cls-2" points="39.92 57.42 0 34.93 8.84 19.25 39.92 36.76 75.41 16.76 110.91 36.76 146.41 16.76 181.91 36.76 213 19.25 221.84 34.93 181.91 57.42 146.41 37.42 110.91 57.42 75.41 37.42 39.92 57.42"/><polygon class="cls-3" points="39.92 82.26 2.21 61.01 6.63 53.17 39.92 71.93 75.41 51.93 110.91 71.93 146.41 51.93 181.91 71.93 215.21 53.17 219.63 61.01 181.91 82.26 146.41 62.26 110.91 82.26 75.41 62.26 39.92 82.26"/><polygon class="cls-4" points="41.92 105.68 4.46 84.58 8.38 77.61 41.92 96.5 77.41 76.5 112.91 96.5 148.41 76.5 183.91 96.5 217.46 77.61 221.38 84.58 183.91 105.68 148.41 85.68 112.91 105.68 77.41 85.68 41.92 105.68"/></g></g></svg>